<svg height="24" width="24" xmlns="http://www.w3.org/2000/svg" viewBox="0 0 96.01 100.01"><defs><style>.cls-1,.cls-2{stroke:#000;stroke-miterlimit:10;stroke-width:10px;}.cls-2{fill:#fff;stroke-width:4px;}</style></defs><g><g ><path class="cls-1" d="M91.35,68.63a10.82,10.82,0,0,1,0,15.28L78.91,96.34a10.8,10.8,0,0,1-15.29,0L48,80.72,32.39,96.35a10.83,10.83,0,0,1-15.29,0L4.67,83.91a10.79,10.79,0,0,1,0-15.28L20.28,53,4.67,37.39a10.79,10.79,0,0,1,0-15.28L17.1,9.67a10.8,10.8,0,0,1,15.28,0L48,25.28,63.62,9.67a10.79,10.79,0,0,1,15.28,0L91.34,22.1a10.82,10.82,0,0,1,0,15.28L75.72,53Z"/><path class="cls-2" d="M91.35,63.63a10.82,10.82,0,0,1,0,15.28L78.91,91.34a10.8,10.8,0,0,1-15.29,0L48,75.72,32.39,91.35a10.83,10.83,0,0,1-15.29,0L4.67,78.91a10.79,10.79,0,0,1,0-15.28L20.28,48,4.67,32.39a10.79,10.79,0,0,1,0-15.28L17.1,4.67a10.8,10.8,0,0,1,15.28,0L48,20.28,63.62,4.67a10.79,10.79,0,0,1,15.28,0L91.34,17.1a10.82,10.82,0,0,1,0,15.28L75.72,48Z"/></g></g></svg>