<svg fill="white" xmlns="http://www.w3.org/2000/svg" viewBox="0 0 142.46 103.01"><defs><style>.cls-1{fill:#293757;}</style></defs><g id="Capa_2" data-name="Capa 2"><g id="Capa_1-2" data-name="Capa 1"><path class="cls-1" d="M106.36,27.48a1.33,1.33,0,0,0,.19.24c.32.28.56.35.76.3l.12-.17A4.14,4.14,0,0,0,106.36,27.48Z"/><path class="cls-1" d="M141.86,75.31c-.34-1.8-.75-3.59-1-5.4-2.82-22.41-12.27-42.32-23-61.8-2.69-4.89-6.52-6.49-11.84-6.39-11.66.2-20,7.17-29.11,13.46,3,1.09,6.94.53,5.71,5.38-5.26-5.78-18.84-2.93-23.9,2.33a2.76,2.76,0,0,0-.58,3.57,1.3,1.3,0,0,1,.44,2l-1.31-1.19c-1.82-.74-3.44-2.32-5.55-1.93-6,1.09-11.9.1-17.84-.57-2.64-.3-6-.94-7.3,2.59a9.25,9.25,0,0,0,2,9.75,15.86,15.86,0,0,0,4.9,3.33c4.54,2.24,9.46,3,14.48,3.27,19.65,1.06,37.06-6.19,54.21-14.5,1.23-.59,2.24-2.11,4.14-1.74-.24-.44.11-.91.63-1.21s.79-1.69,1.74-.88c.45.38.13,1.21-.6,1.53-.21.47-.42,1-.82,1.1-2.92,4.16-7.26,5.64-11.29,7.62-1.61.8-4.58.21-4.48,3s2.35,4.24,4.86,5c1.42.46,2.93.67,4.32,1.19,6.33,2.37,13.53,1.76,19.43,5.6.5.21,1.41.07,1.09,1-.07.17-1.18,0-1.8-.06-14-3.52-28.44-2.74-42.62-4.52-7.59-1-15.28-1.4-22.93-.23-1.28.2-2.65,0-3.75,1-6,5.68-3.51,17.64,4.35,20.18A46,46,0,0,0,70.3,69.66c9-.32,16.55,3.4,24.09,7.58-2.1,1.41-4.29-.47-6.25.42,0,3.54,2.49,6,2.94,9.07l-.08,0,0,.06h.1c9.69,9.62,21.59,11.15,34.4,9.39a1.93,1.93,0,0,1,2.19,0l-1.48.85c-7.56,4.37-15.44,2.45-23.31,1.24-4.81-.73-9.37-3.14-14.75-2.33,10.7,5.81,23.42,8.23,34.31,6.65C137.57,100.34,144.66,90.4,141.86,75.31Z"/><path class="cls-1" d="M21.3,29.43c1.26-5.84.08-6.9-5.87-6.46-5.22.38-7.1,2.73-6.36,7.85.15,1,1.41,2.06,0,3.32-2.28-1.27-2.25-3.77-2.87-5.83C5.76,26.89,6,25.23,3.67,25.6c-1.82.29-3.2,1-3.52,3a9.44,9.44,0,0,0,3.24,9c2.89,2.57,6.34,4,10.54,5.13-1.34-2.94-3.95-4.52-4.14-7.73,5.46,4.67,11.08,8.75,19,9.27C24.71,39.67,19.83,36.26,21.3,29.43Z"/><path class="cls-1" d="M52.75,20.71c14.33-4.45,27-12.36,40.78-19.58C89.24-.74,86.06,0,82.69,1.38,67.16,7.85,52.24,15.8,36.07,21,41.69,21.88,47.3,22.4,52.75,20.71Z"/><path class="cls-1" d="M86.44,81.68c-1.11-5.25-4.67-6.42-9-6.72-3.39-.24-6.81,0-10.34,0,4.23,10.51,15.9,18,25,16.32.24-1.66-3.24-2.33-1.19-4.49C87.1,87.25,86.83,83.5,86.44,81.68Z"/></g></g></svg>