<svg fill="white" xmlns="http://www.w3.org/2000/svg" viewBox="0 0 119.48 197.59"><defs><style>.cls-1{fill:#293757;}</style></defs><g id="Capa_2" data-name="Capa 2"><g id="Capa_1-2" data-name="Capa 1"><path class="cls-1" d="M28.41,17.77a29.5,29.5,0,0,1-1.79-8.19c-.18-7.33,4.55-11.17,11.52-9C42.52,2,46.38,4.33,46.5,9.8c-.36,3.29.57,6.36,1.67,9.41,2,11.31,5.79,22.13,9,33.1,1,3.46,1.11,5.75-3.92,4.94,5.42,3.82,9.64,19.43,7.71,27.48l7.5.43a13.31,13.31,0,0,1-3.78-7C61,58.07,56.2,38.27,49.26,19c-1.06-3.34-.66-6.81-1-10.22C50.06,4.36,53.55,4.89,57,6.05c3.09,1,5.18,3.56,7.18,6,9.14,11.33,13.49,24.73,16.31,38.7,3.36,16.61,5.09,33.57,11,49.59,3,8.06,1.27,15.67-1.52,23.31-.6,1.62-2,3.09-1.36,5.19,3.48-.91,5.36-7.94,10.73-2.61-1.49-4.64-3.91-9-3.81-13.68.09-3.8-4.74-9,3-11.51-6.42,0-6.2-4.86-6.87-8.72-1.12-6.44-1.25-12.92.64-19.31a17,17,0,0,1,3.13-6.18c5.26-6.32,12.86-5.46,16.41,1.87,2.53,5.21,3.19,10.9,3.31,16.53A165.32,165.32,0,0,0,118.55,117c1.73,7.93.89,15.47-1.18,23.11-3,11.13-6.94,21.85-13,31.74a15.55,15.55,0,0,1-8.09,7c-3.44,1.22-6.85,2.64-10.38,3.51-9.17,2.27-17.88,4.85-26.07,10.37-12.75,8.6-25.26,5.33-34.5-6.9C10.81,166.61,2.72,144.58,5.79,121,8.2,102.35,4.16,85.35,1,67.78.12,62.69-.47,57.52.51,52.39c.59-3.12,1.55-6.2,5.26-7.2,3.08-.84,5.48-.41,7.1,2.74a37.76,37.76,0,0,1,3.28,8.87c3.11,13.28,6.1,26.59,9.15,39.88a16,16,0,0,1-.29,8.64c3-2.28,4.69-4.65,3.61-8.93C23.27,75.28,18.17,54.1,13.17,32.9a53.75,53.75,0,0,1-1-10.92c-.1-4.12.48-8.23,5.21-9.68s7.41,1.57,9.37,5.38c1.05,2.87,2.09,5.75,3.14,8.63,3.57,21,10.7,41.26,12,62.67,3.66-.34,6.08-1.49,2.73-5.77-.45-.59-.32-1.61-.55-2.41-1.58-5.45-1.53-11.2-2.85-16.65-3.07-12.72-6.67-25.32-10.06-38Q29.77,22,28.41,17.77Zm.18,114.08A45,45,0,0,0,49,120.6c5.22-4.88,11-8.57,18.21-9.66,2.5-.39,5-.73,8.75-1.28-9.06-1.25-16.07.18-22.51,5C45.71,120.36,37.65,125.6,28.59,131.85ZM64.88,171c-1-10.37-9.81-21.33-17.64-22.19C55.08,154.86,61.72,161.51,64.88,171Zm23.36-41.29c-.12-.12-.24-.32-.36-.32s-.24.21-.35.33l.53.34Z"/></g></g></svg>