<svg height="24" width="24"  xmlns="http://www.w3.org/2000/svg" viewBox="0 0 95.96 85.14"><defs><style>.cls-1,.cls-2{stroke:#000;stroke-miterlimit:10;}.cls-1{stroke-width:8px;}.cls-2{fill:#fff;stroke-width:3px;}</style></defs><g ><g ><path class="cls-1" d="M48.26,16.61c4.78.23,10.62-.26,16.46.32,13.6,1.34,25.76,12.26,28.52,25.8A33.19,33.19,0,0,1,66.38,82.59a50.35,50.35,0,0,1-9.35.54c-6.33,0-12.66,0-19,0-3.2,0-4.26-1.06-4.26-4.21q0-7.41,0-14.81c0-3,1.09-4.08,4.18-4.08,7.51,0,15,0,22.53,0,6,0,10.45-4.3,10.46-10.07s-4.4-10.19-10.53-10.2c-9.18,0-18.36.05-27.54,0-1.89,0-2.36.55-2.27,2.34.14,3,0,6.12,0,9.18,0,1.65-.48,3-2.12,3.71s-2.81-.1-3.89-1.18Q14,43.11,3.41,32.48c-1.86-1.88-1.88-3.39,0-5.24Q14,16.52,24.75,5.84c1-1,2.19-1.73,3.72-1.1a3.5,3.5,0,0,1,2.18,3.67c0,2.16.07,4.32,0,6.47-.06,1.38.44,1.78,1.78,1.76C37.34,16.57,42.28,16.61,48.26,16.61Z"/><path class="cls-2" d="M48.26,13.61c4.78.23,10.62-.26,16.46.32,13.6,1.34,25.76,12.26,28.52,25.8A33.19,33.19,0,0,1,66.38,79.59a50.35,50.35,0,0,1-9.35.54c-6.33,0-12.66,0-19,0-3.2,0-4.26-1.06-4.26-4.21q0-7.41,0-14.81c0-3,1.09-4.08,4.18-4.08,7.51,0,15,0,22.53,0,6,0,10.45-4.3,10.46-10.07s-4.4-10.19-10.53-10.2c-9.18,0-18.36.05-27.54,0-1.89,0-2.36.55-2.27,2.34.14,3,0,6.12,0,9.18,0,1.65-.48,3-2.12,3.71s-2.81-.1-3.89-1.18Q14,40.11,3.41,29.48c-1.86-1.88-1.88-3.39,0-5.24Q14,13.52,24.75,2.84c1-1,2.19-1.73,3.72-1.1a3.5,3.5,0,0,1,2.18,3.67c0,2.16.07,4.32,0,6.47-.06,1.38.44,1.78,1.78,1.76C37.34,13.57,42.28,13.61,48.26,13.61Z"/></g></g></svg>