<svg fill="white" xmlns="http://www.w3.org/2000/svg" viewBox="0 0 152.07 123.23"><defs><style>.cls-1{fill:#293757;}</style></defs><g id="Capa_2" data-name="Capa 2"><g id="Capa_1-2" data-name="Capa 1"><path class="cls-1" d="M150.8,45.38c-1.46-5.89-4.58-8.16-10.67-8.61-4.78-.35-9.36-.8-14-2.91-8.63-3.94-16.7,2-16.47,11.46s4.63,14.92,14.16,18.24c2.39.83,5.16,1,7,3.73-4.73-.08-8.25-2.29-11.9-4.24-1.66-.89-3.45-3.06-5.23-1.85-1.63,1.1-.75,3.69-.85,5.63-.14,2.69.93,5.41-.27,8.71-1.26-3.26-2.63-5.9-3.27-8.71-.9-3.93-3-4.4-6.5-3.57-2.65.63-5.27,1.9-8.2,1.63.18,1.13-1.09,1.67-1.78,2.17-4.59,3.31-9.23,6.55-14,9.64-8.55,5.57-15.93,12-18.18,22.88-1.45-1.69-1.35-3.42-1.68-5s-.27-3.78-2.86-4S51.35,90,49.71,92.8c-2,3.37-3,7.4-6.59,10.45-.55-3.4.8-5.85,1.88-8.24,1.24-2.74,1.37-4.66-1.51-6.64a22,22,0,0,1-7-8.1c1.49-1.45,2.33-.17,3,.53,5.2,5.17,11.33,5.45,18.07,4,4.38-1,6.09-3.48,6.33-7.63.49-8.39-4.52-14.38-12.45-14.76.06-.29,0-.71.22-.83,7-4.62,7.13-4.79,0-9.74a111.56,111.56,0,0,1-13.67-11.6,56.46,56.46,0,0,1-4.15-4.94c-1.11-1.37-.32-2.75.56-3.57,1.27-1.18,2,.38,2.75,1.13,5.35,5.25,10.6,10.59,16,15.75C58.93,54,63.07,60,64.79,67.91c2.17,10,4.93,10.74,13.74,5.48,2.69-1.61,4.08-3.63,4-6.87-.26-6.81-.37-13.63-.46-20.45,0-2.62-1.28-3.07-3.55-2.51-1.37.33-2.38,1.93-4,1.25-.39-.72-.42-1.43.17-1.83,5.48-3.66,2.29-6.15-1-8.82-5.31-4.28-10.54-8.67-15.76-13.06C56.57,20,54.74,18.44,55.7,17c1.18-1.75,3.17-.11,4.33.81,7.16,5.7,14.37,11.35,21.19,17.44,4.14,3.7,4,9.33,4.65,14.4.42,3.13.25,6.33.64,9.47C87.25,65,88.7,65.83,94.29,64a2.43,2.43,0,0,1,.15.26c4.72-10,5.29-12,5.21-19.09A94,94,0,0,0,97.9,27.31c-.53-2.56-.09-6.52-2.26-7.31-2.83-1-4.22,3-6.43,4.59-.09.5-.31.94-.85.58-.14-.1.1-.78.17-1.19.82-2,1.33-4.18,3-5.7,2.23-2.09,1.27-3.23-.92-4.38A57.14,57.14,0,0,0,77.9,9.44c-6.59-1.66-13.16-3-19.17-6.73-3.42-2.1-7.51-4-12.22-1.59C41.24,3.82,40.24,8,41.18,13.4c-1.67-.57-2.91-1-4.18-1.4-7.59-2.17-10.57-.79-13.32,6.44a18.71,18.71,0,0,1-7.78,9.91A29.07,29.07,0,0,0,2.06,50.42C1.44,55.54.75,60.67.42,65.81c-.82,12.85-.83,25.66,3.65,38,5,13.73,14.48,20,29.1,19.37a82.14,82.14,0,0,0,22.49-4.29,15,15,0,0,1,8.26-.57c15.33,3.31,28.27-1.55,39.19-12.24a199.45,199.45,0,0,0,14.56-15.79C124,82.6,131.05,76,140.16,71.68,151.71,66.19,153.89,57.8,150.8,45.38Zm-79,.85c.28-.52.66-1.3,1.24-.92,1,.68.14,1.21-.42,1.68-.77.46-1.54.87-2.32,0ZM34.22,76.81c-1.09,1.23-1.73-.28-2.38-1-3.61-2.41-8.17.56-11.7-2.55,4.26.46,8.82-2.45,12.74,1.64C33.57,75.39,34.94,76,34.22,76.81Z"/><path class="cls-1" d="M94.66,64.89a1.89,1.89,0,0,0-.22-.61l-.26.57Z"/><path class="cls-1" d="M103.1,26.19c.51,5.14,1.24,10.25,1,15.42-.26,5.6-.66,11.2-1,16.91,3.65-.09,5.41-1.36,5.1-5.15-.32-4,.22-8-.23-12-.89-7.76,2.55-9.59,8.89-11.34a50.17,50.17,0,0,1,6.41-.87c1.09-.16,2.21,0,2.82-1.49,2.51-6.07.07-15.69-5.56-18.19C105.9,3,90.77-.59,74.13,4L88.85,8.47C97.65,11.12,102.19,17.09,103.1,26.19Z"/></g></g></svg>