<svg fill="white" xmlns="http://www.w3.org/2000/svg" viewBox="0 0 207.02 148.72"><defs><style>.cls-1{fill:#293757;}</style></defs><g id="Capa_2" data-name="Capa 2"><g id="Capa_1-2" data-name="Capa 1"><path class="cls-1" d="M206.26,92c2.23-10.91-.31-17.44-9.82-23.23-5.53-3.36-11.77-5.63-17.07-9.29C171,53.77,162.73,54,153.05,55.86c-19.64,3.82-29.18,17.53-36.91,33.73a16,16,0,0,0-1.2,4.82,7.78,7.78,0,0,0,3.33,7.86c5.22,3.57,10.75,5.09,16.85,1.9a32.2,32.2,0,0,0,11-10c4.09-5.57,8.11-11.2,12.91-17.85-.35,7.33,4.17,7.69,8.71,7.5,3.64-.15,7.25-.88,10.87-1.36.4-.06,1-.28,1.13-.14.35.53-.15.65-.56.75-1.43,2.5-4,2.85-6.41,3-3.81.2-7.64.06-11.45.15-1.88,0-4.2-.7-4.78,2.19-.49,2.37-.56,4.44,1.88,6.12,3.14,2.16,6,4.72,8.94,7.16.7.57,2.19,1.15,1.51,2.19-4.06,6.24,2,6.76,5,8.5,3.72,2.17,8.29,2.1,13.2,3.22-4.44,2.41-8.14,1.19-11.74.2-1.81-.5-3.08-1-3.69,1.42-1,3.78-3.82,5.55-7.31,6.75-6.27,2.16-12.48,4.48-18.72,6.74l-11,3.82c-1,.69-2.6.89-2.95.2-.51-1,1.1-.93,1.75-1.38,3.52-2.05,7.47-2.8,11.33-3.84,6.39-3.55,13.9-4.71,19.81-9.24,3.61-2.76,3.94-5.57.71-8.74-2.59-2.52-6.11-2.6-9.52-3.46-8.21-2.06-15.39.13-22.78,2-9,2.32-8.94,2.56-7.83,12,0,.2-.27.44-.47.73a7.7,7.7,0,0,1-2.8-5.13c-.61-3.43-1.21-6.38-5.57-3.14a1.8,1.8,0,0,1-2.89-.86c-.63-1.58.88-1.94,1.8-2.48,2.06-1.21,4.78-.86,6.81-2.62-8.2-4.16-11.29-11-9.52-20.54.24-1.31,1.64-2.76-.63-3.77-3.13-1.39-9.27.3-11.37,3.25-3.87,5.45-3.67,20,1.06,24.59a32.87,32.87,0,0,1,9.76,18.56c1.23,6.94,5.76,11.08,12.67,12.44,4.9,1,9.88,1.5,14.74,2.62a121.59,121.59,0,0,0,46.09,1.39q12.64-1.9,14.86-14.52c.88-5,1.25-10-.6-14.78a8.43,8.43,0,0,1,.28-6.64C201.78,104.89,204.88,98.79,206.26,92Z"/><path class="cls-1" d="M111.93,79.94c3.14.43,4.71-.55,6.34-3.14,7.79-12.37,18.21-21,33.29-23,2.45-.33,5.23-.81,6.93-3.58A33.29,33.29,0,0,0,145.12,46c-10.21-1.22-20.2-3.8-28.8-9.08-11.46-7-23.6-12.84-34.77-20.41a100.26,100.26,0,0,0-28.5-13C46.83,1.76,40.59-.25,34,0S23.62,5.27,25.41,11.22c1,3.4,3.82,5.45,6.87,6.87,5,2.31,10.18,4.11,15.07,6.56,2.42,1.21,4.3,1.57,6.45-1,0,2.69.7,4,2.58,5,5.69,3.11,11.28,6.4,16.83,9.76,1.59,1,2.93,1.43,4.46.13.72-.51,1.38-1.72,2.34-.74.72.72,0,1.43-.76,1.87-1.82,1.7-.91,2.67.82,3.69,2.73,1.6,5.39,3.32,8,5.12a20.38,20.38,0,0,1,7,7.7c2.44,5,.46,8.28-5,8.15A39.08,39.08,0,0,1,82,63.49C62,58.82,41.69,59.65,21.39,60a38.67,38.67,0,0,0-15,3.34C1.66,65.43-.2,69.14,0,74.14S3.88,80.81,7.81,82c6.52,2,13.21,1.2,19.86,1,3.9-.15,7.54-.94,11.76-.42,17.5,2.15,35.16,2.91,52.76,4.16,1.79.13,3.47.4,4.94-1.39C100.94,80.63,106.2,79.16,111.93,79.94Zm-6.16-25.28c.54,5.13-.78,9.91-2.1,14.7C102.62,64.21,104.22,59.42,105.77,54.66Z"/><path class="cls-1" d="M163.72,104c-2.43-5.57-7.07-7.42-11.5-7.87-5.14-.52-6.07,5.95-10,8.47C149.28,103.44,156.33,104.72,163.72,104Z"/></g></g></svg>