<svg fill="white" xmlns="http://www.w3.org/2000/svg" viewBox="0 0 174.01 187.6"><defs><style>.cls-1{fill:#293757;}</style></defs><g id="Capa_2" data-name="Capa 2"><g id="Capa_1-2" data-name="Capa 1"><path class="cls-1" d="M80,60.22c4.38,4.72,1.58,21.59-4.05,26.6,4.6,1.9,5.87-1.35,6.93-4.53,1.56-4.63,1-9.59,2-14.31.4-1.94-.71-5.16,3.3-4.83,1,.08.88-.67.29-1.2-2-1.76-1.13-4.08-1-6.12.57-10.82,1-21.64.86-32.47a25.86,25.86,0,0,1,1.8-10.28c2.41-5.81,8-6.68,12.23-2,3.17,3.52,4.33,8,4.77,12.39C109,42.42,110,61.33,104.63,80c-1.74,6-2.87,12.17-1.69,18.69.84,4.63,1.17,9.82-5.45,13.6,3.8-.57,4.71.45,4.84,2.85.33,6,.87,12,6.16,16.64-8.08.26-15.77-.31-23.43.94,10.41,1.56,20.8,3.52,31.4,2.12a16,16,0,0,0,8.69-3.49c2.37-2,5-5.08,6.51,2.23.57-7.5,5-10,9.86-12,8.07-3.25,16.4-4.23,24.93-1.86,3.91,1.09,7.3,2.81,7.54,7.46.22,4.2-2.32,6.85-5.81,8.54-10.62,5.16-21.21,10.41-32,15.2a34.49,34.49,0,0,0-13,9.75c-2.65,3.21-5.39,6.33-9,8.61-2.37,1.5-4,1.81-4.47-2.33a14.58,14.58,0,0,1-8.09,9.87c-10.31,5.32-21.49,8-32.66,10.57-2.88.68-5.6-.79-8.25-1.51a29.13,29.13,0,0,0-13.26-.24,59.77,59.77,0,0,1-14.46.39c-8.42-.52-14.21-4.26-17.36-12.53-7.25-19-8.62-38.63-6-58.52A72.27,72.27,0,0,0,7.72,88.33c-2.41-10-4.84-20-7-30.14A27.8,27.8,0,0,1,1,44.34a6.37,6.37,0,0,1,6-5c3.16-.31,4.3,1.71,5.45,4.11,2.9,6,4.33,12.53,6.51,18.8.84,2.43-.87,3.12-2.3,3.78,6.19,3.77,5.66,9.9,7.35,15.46s4.55,10.88,2.83,17.17c4.94-2.4,5.74-3.64,4.17-8.21-2-5.81-4.47-11.46-6.58-17.23-.93-2.52-3.12-5.43,2-7.58-3.87,1.17-4.89-.34-5.65-2.9C19.38,57.78,17.57,53,16,48.06c-.6-1.84-1.7-3.74-.12-5.64.46-.56.76-1.47-.09-1.38-5.21.55-3.71-3.93-4.36-6.2-1.72-6.08-3-12.37-1.67-18.73.78-3.74,1.74-7.63,6.65-8.22S24.86,9,26.72,13.71c1.2,3.09,2.66,6.1,3.63,9.27,5.06,16.35,10,32.75,15,49.13a3.88,3.88,0,0,0,.11.49c1.85,3.72,3.6,8.77,7.81,8.83,3,0,4-5.12,5.13-8.35,5.85-16.75,9.85-33.85,9.94-51.73a41.12,41.12,0,0,1,2.52-15.2c2-4.9,6.13-7,11.22-5.82S88,5.47,87.54,9.62a405,405,0,0,0-2.47,44.86C85.1,59.36,84.55,59.55,80,60.22ZM36.09,133.35l1.08.87c3.92,5.81,8.53,11.15,11.64,17.51-.66-7.11-4.64-13.35-11.14-18-.5-.59-1-.95-1.71-.24l.22-.83-.46-.1C35.84,132.85,36,133.11,36.09,133.35Zm31.6-5.65c0-.31,0-.62,0-.94a1.09,1.09,0,0,0-.27-.07c.1.37.2.74.27,1.07-.77-.76-1.41-1.12-1.41.47-3.28,1.3-5.61,3.39-5.93,7.14-2-.25-1.43,2-2.56,2.6.67,0,.73.37.35.83a.39.39,0,0,1-.39,0c-.39-.37-.48-.72.17-.92a3.7,3.7,0,0,0,2.34-2.66l5.92-7.11ZM44,118c7.4-1.67,14.33-5.23,21.94-6.52C57.82,110.73,51,114.67,44,118Z"/></g></g></svg>